<svg id="Capa_1" enable-background="new 0 0 512 512" height="512" viewBox="0 0 512 512" width="512" xmlns="http://www.w3.org/2000/svg"><g><path d="m90.88 0h30v80.016h-30z" fill="#ffeb99"/><path d="m150.928 0h30v80.016h-30z" fill="#ffeb99"/><path d="m210.976 0h30v80.016h-30z" fill="#ffeb99"/><path d="m271.024 0h30v80.016h-30z" fill="#ffda44"/><path d="m331.072 0h30v80.016h-30z" fill="#ffda44"/><path d="m391.12 0h30v80.016h-30z" fill="#ffda44"/><path d="m90.88 431.984h30v80.016h-30z" fill="#ffeb99"/><path d="m150.928 431.984h30v80.016h-30z" fill="#ffeb99"/><path d="m210.976 431.984h30v80.016h-30z" fill="#ffeb99"/><g fill="#ffda44"><path d="m271.024 431.984h30v80.016h-30z"/><path d="m331.072 431.984h30v80.016h-30z"/><path d="m391.12 431.984h30v80.016h-30z"/><path d="m431.984 90.88h80.016v30h-80.016z"/><path d="m431.984 150.928h80.016v30h-80.016z"/><path d="m431.984 210.976h80.016v30h-80.016z"/><path d="m431.984 271.024h80.016v30h-80.016z"/><path d="m431.984 331.072h80.016v30h-80.016z"/><path d="m431.984 391.12h80.016v30h-80.016z"/></g><path d="m0 90.88h80.016v30h-80.016z" fill="#ffeb99"/><path d="m0 150.928h80.016v30h-80.016z" fill="#ffeb99"/><path d="m0 210.976h80.016v30h-80.016z" fill="#ffeb99"/><path d="m0 271.024h80.016v30h-80.016z" fill="#ffeb99"/><path d="m0 331.072h80.016v30h-80.016z" fill="#ffeb99"/><path d="m0 391.12h80.016v30h-80.016z" fill="#ffeb99"/><path d="m421.12 60h-165.12l-20.016 196 20.016 196h165.12l30.88-30.88v-330.24z" fill="#007769"/><path d="m90.88 60-30.88 30.88v330.24l30.88 30.88h165.12v-392z" fill="#00aa63"/><path d="m397 115h-141l-20.016 141 20.016 141h141z" fill="#d2d2d7"/><path d="m115 115h141v282h-141z" fill="#ebebf0"/><path d="m367 145h-111l-20.016 110.144 20.016 111.856h111z" fill="#a0a0a5"/><path d="m145 145h111v222h-111z" fill="#d2d2d7"/><path d="m322 190h-66l-20.016 66 20.016 66h66z" fill="#ebebf0"/><path d="m190 190h66v132h-66z" fill="#fff5f5"/></g></svg>