<svg id="Capa_1" enable-background="new 0 0 512 512" height="512" viewBox="0 0 512 512" width="512" xmlns="http://www.w3.org/2000/svg"><path d="m347 76c-9.94 0-19.84.89-29.56 2.64-20.85-38.43-60.99-62.64-105.44-62.64-33.08 0-63.08 13.46-84.81 35.19s-35.19 51.73-35.19 84.81c0 55.06 37.35 102.9 90.38 116.32 3.27 49.06 28.27 92.63 65.6 120.67l99.02.01h99.01c.57-.43 1.14-.86 1.7-1.29 39.33-30.35 64.29-77.8 64.29-130.71 0-90.98-74.02-165-165-165zm-130.51 64.49c-8.73 11.31-16.021 23.78-21.6 37.13-16.35-6.74-27.89-22.86-27.89-41.62 0-12.4 5.05-23.66 13.2-31.8 8.14-8.15 19.4-13.2 31.8-13.2 14.79 0 27.93 7.17 36.13 18.22-11.91 8.95-22.56 19.48-31.64 31.27z" fill="#725d57"/><path d="m512 241c0 52.91-24.96 100.36-64.29 130.71-.56.43-1.13.86-1.7 1.29h-99.01v-297c90.98 0 165 74.02 165 165z" fill="#53433f"/><path d="m136 346h180v90h-180z" fill="#d9f2ff"/><path d="m226 346h90v90h-90z" fill="#cdf"/><path d="m0 316h76v150h-76z" fill="#64dde0"/><path d="m151 496h-90v-210h90z" fill="#a9f0f0"/><path d="m376 316h75v150h-75z" fill="#00c2c7"/><path d="m391 496h-90v-210h90z" fill="#64dde0"/></svg>