<svg id="Layer_1" enable-background="new 0 0 512 512" height="512" viewBox="0 0 512 512" width="512" xmlns="http://www.w3.org/2000/svg"><path d="m475.35 373.681v-263.455c0-5.666-4.637-10.302-10.303-10.302h-418.094c-5.666 0-10.302 4.636-10.302 10.302v263.455z" fill="#596c76"/><path d="m66.667 373.681v-238.408c0-2.833 2.318-5.151 5.151-5.151h6.33v-19.896c0-5.666 4.636-10.302 10.302-10.302h-41.497c-5.666 0-10.302 4.636-10.302 10.302v263.455z" fill="#475a61"/><path d="m66.667 167.946h378.666v205.735h-378.666z" fill="#c7eefd"/><path d="m440.182 130.122h-368.364c-2.833 0-5.151 2.318-5.151 5.151v33.674h378.666v-33.674c0-2.834-2.317-5.151-5.151-5.151z" fill="#0067c4"/><path d="m512 401.774c0 5.666-4.636 10.302-10.302 10.302h-491.396c-5.666 0-10.302-4.636-10.302-10.302v-18.792c0-5.666 4.636-10.302 10.302-10.302h491.396c5.666 0 10.302 4.636 10.302 10.302z" fill="#8c9ba7"/><path d="m41.722 401.774v-18.792c0-5.666 4.636-10.302 10.302-10.302h-41.722c-5.666.001-10.302 4.637-10.302 10.303v18.792c0 5.666 4.636 10.302 10.302 10.302h41.723c-5.667-.001-10.303-4.637-10.303-10.303z" fill="#798b97"/><path d="m137.398 192.796c-25.677 0-46.491 20.814-46.491 46.49 0 13.462 5.729 25.582 14.874 34.072l.144-.3c4.021-8.409 11.386-14.962 20.209-17.979l1.772-.607-1.49-1.135c-4.561-3.476-7.177-8.738-7.177-14.437 0-10.013 8.146-18.159 18.16-18.159 10.012 0 18.158 8.146 18.158 18.159 0 5.699-2.616 10.96-7.176 14.437l-1.49 1.136 1.773.606c8.822 3.016 16.188 9.569 20.209 17.979l.143.299c9.145-8.49 14.873-20.609 14.873-34.071-.002-25.675-20.816-46.49-46.491-46.49z" fill="#46cb8c"/><path d="m147.829 253.742c-2.955 2.083-6.548 3.318-10.43 3.318s-7.475-1.235-10.431-3.318c-9.689 2.944-17.64 9.878-21.947 18.89 8.372 8.13 19.786 13.145 32.378 13.145 12.591 0 24.006-5.014 32.377-13.145-4.308-9.012-12.259-15.946-21.947-18.89z" fill="#e7b700"/><circle cx="137.397" cy="238.901" fill="#fdde30" r="19.159"/><path d="m172.423 320.096h-70.052c-4.142 0-7.5-3.358-7.5-7.5s3.358-7.5 7.5-7.5h70.052c4.142 0 7.5 3.358 7.5 7.5s-3.358 7.5-7.5 7.5z" fill="#46cb8c"/><path d="m172.423 345.851h-70.052c-4.142 0-7.5-3.358-7.5-7.5s3.358-7.5 7.5-7.5h70.052c4.142 0 7.5 3.358 7.5 7.5s-3.358 7.5-7.5 7.5z" fill="#46cb8c"/><circle cx="421.344" cy="149.535" fill="#0592fb" r="7.5"/><circle cx="88.596" cy="149.535" fill="#d73131" r="7.5"/><circle cx="109.199" cy="149.535" fill="#fdd302" r="7.5"/><circle cx="129.803" cy="149.535" fill="#07b17b" r="7.5"/><path d="m406.406 237.968c0 2.833-2.317 5.151-5.15 5.151h-183.373c-2.833 0-5.151-2.318-5.151-5.151v-31.935c0-2.833 2.318-5.151 5.151-5.151h183.373c2.833 0 5.15 2.318 5.15 5.151z" fill="#fff"/><path d="m243.638 237.968v-31.935c0-2.833 2.318-5.151 5.151-5.151h-30.905c-2.833 0-5.151 2.318-5.151 5.151v31.935c0 2.833 2.318 5.151 5.151 5.151h30.905c-2.833 0-5.151-2.318-5.151-5.151z" fill="#dff6fd"/><path d="m406.406 295.658c0 2.833-2.317 5.151-5.15 5.151h-183.373c-2.833 0-5.151-2.318-5.151-5.151v-20.622c0-2.833 2.318-5.151 5.151-5.151h183.373c2.833 0 5.15 2.318 5.15 5.151z" fill="#fff"/><path d="m243.638 295.658v-20.622c0-2.833 2.318-5.151 5.151-5.151h-30.905c-2.833 0-5.151 2.318-5.151 5.151v20.622c0 2.833 2.318 5.151 5.151 5.151h30.905c-2.833.001-5.151-2.318-5.151-5.151z" fill="#dff6fd"/><path d="m406.406 345.851h-193.674c-4.142 0-7.5-3.358-7.5-7.5s3.358-7.5 7.5-7.5h193.674c4.142 0 7.5 3.358 7.5 7.5s-3.357 7.5-7.5 7.5z" fill="#fff"/></svg>